<svg width="121" height="42" viewBox="0 0 121 42" fill="none" xmlns="http://www.w3.org/2000/svg">
<path d="M6.04909 34.39L6.0491 34.8889L2.75483 35.5502L2.6694 35.5673L2.60276 35.581L1.03764 35.581L1.02055 35.5657C0.851387 35.388 0.784742 35.1419 0.842829 34.9027L0.959005 34.4345L0.981214 34.3457L1.89353 30.7712L2.36683 30.7711L2.36854 30.7746C2.39246 30.819 2.4198 30.8651 2.4574 30.9095C2.58555 31.0684 2.7735 31.188 3.02126 31.2615C3.15796 31.3042 3.31174 31.3333 3.4826 31.3486C3.5014 31.3504 3.52532 31.3521 3.54753 31.3538L3.6791 31.364L3.69448 31.364L3.68252 31.5127L3.68252 31.5161C3.68081 31.5229 3.68081 31.5383 3.68081 31.5656C3.68081 31.5793 3.68252 31.5947 3.68252 31.6135L3.68252 31.6442C3.68423 31.663 3.68423 31.6835 3.68765 31.7075C3.70474 31.9142 3.77139 32.2576 4.01403 32.5447C4.25837 32.8283 4.62574 32.994 5.10929 33.0419L5.13492 33.0453C5.14859 33.0453 5.16055 33.047 5.17593 33.047L5.1896 33.0487L5.30066 33.0572L5.30066 33.0607L5.3075 33.1529L5.30921 33.182C5.30921 33.1888 5.31092 33.2127 5.31775 33.2486C5.32972 33.3443 5.36902 33.5288 5.46129 33.7322C5.56724 33.9628 5.74665 34.2191 6.04909 34.39" fill="black"/>
<path d="M48.0042 18.3216C47.984 17.2351 47.5915 16.3652 46.8272 15.7112C46.0624 15.0576 45.1269 14.7305 44.0207 14.7305C42.9744 14.7305 42.0941 15.0473 41.3802 15.6811C40.6658 16.3149 40.2283 17.1953 40.0675 18.3219L48.0042 18.3216ZM52.2594 21.158L40.0374 21.1584C40.1379 22.3656 40.5605 23.3115 41.3049 23.9951C42.0491 24.6794 42.9647 25.0211 44.0511 25.021C45.6203 25.021 46.7369 24.3472 47.4009 22.9991L51.9577 22.999C51.4749 24.6087 50.5492 25.9314 49.1814 26.9674C47.813 28.0039 46.1336 28.5217 44.1418 28.5217C42.532 28.5218 41.0887 28.1647 39.8113 27.4504C38.5334 26.7367 37.5376 25.7257 36.8237 24.4176C36.1092 23.1103 35.7522 21.6014 35.7522 19.891C35.7521 18.161 36.1039 16.6424 36.8084 15.3344C37.5123 14.0267 38.4982 13.021 39.7656 12.3165C41.0331 11.6124 42.4914 11.2601 44.1413 11.26C45.7303 11.26 47.154 11.6024 48.4114 12.286C49.6685 12.9701 50.6447 13.9411 51.3388 15.1981C52.0329 16.4557 52.3799 17.899 52.38 19.5285C52.38 20.132 52.3395 20.6752 52.2594 21.158Z" fill="black"/>
<path d="M66.9251 17.2496C66.5224 16.5156 65.9793 15.9521 65.2955 15.5598C64.6113 15.1675 63.8771 14.9714 63.0925 14.9714C62.3079 14.9715 61.5836 15.163 60.9196 15.5447C60.2558 15.9273 59.7175 16.4856 59.3053 17.2198C58.8929 17.9543 58.6867 18.8244 58.6867 19.8301C58.6867 20.8363 58.893 21.7163 59.3055 22.4708C59.7176 23.2252 60.2608 23.8035 60.9351 24.2057C61.609 24.6085 62.328 24.8094 63.0928 24.8093C63.8774 24.8093 64.6116 24.6132 65.2958 24.2208C65.9795 23.8285 66.5225 23.2655 66.9253 22.5308C67.3274 21.7965 67.5289 20.9162 67.5288 19.8902C67.5288 18.8641 67.3273 17.9843 66.9251 17.2496V17.2496ZM55.3822 15.3339C56.0559 14.0262 56.9763 13.0205 58.1433 12.316C59.3098 11.612 60.6073 11.2596 62.0361 11.2596C63.1227 11.2595 64.1584 11.4962 65.1445 11.9687C66.1299 12.4417 66.9146 13.0701 67.4984 13.8547L67.4982 5.91799L71.7833 5.91787L71.784 28.2493L67.4988 28.2494L67.4988 25.775C66.9754 26.6001 66.2412 27.2639 65.2959 27.7666C64.35 28.2693 63.2539 28.5212 62.0065 28.5213C60.5981 28.5213 59.3103 28.1591 58.1438 27.4348C56.9767 26.7106 56.0562 25.6899 55.3825 24.372C54.7082 23.0546 54.3714 21.5404 54.3713 19.8302C54.3713 18.1404 54.708 16.6419 55.3822 15.3339" fill="black"/>
<path d="M87.3852 17.2487C86.9825 16.5146 86.4395 15.9511 85.7556 15.5589C85.0713 15.1666 84.3373 14.9704 83.5527 14.9705C82.768 14.9705 82.0436 15.162 81.3796 15.5438C80.716 15.9264 80.1774 16.4846 79.7653 17.2188C79.3529 17.9534 79.1468 18.8234 79.1469 19.8291C79.1469 20.8354 79.353 21.7153 79.7655 22.4698C80.1776 23.2242 80.7206 23.8026 81.3951 24.2048C82.0691 24.6075 82.7881 24.8084 83.5529 24.8084C84.3375 24.8083 85.0716 24.6122 85.7559 24.2198C86.4397 23.8275 86.9827 23.2645 87.3854 22.5298C87.7876 21.7956 87.9887 20.9153 87.9886 19.8892C87.9886 18.8632 87.7875 17.9834 87.3852 17.2487V17.2487ZM75.8422 15.3329C76.5159 14.0252 77.4312 13.0195 78.5884 12.315C79.745 11.611 81.0374 11.2586 82.4662 11.2586C83.7135 11.2586 84.8048 11.5104 85.7403 12.013C86.676 12.516 87.4251 13.1498 87.9885 13.914L87.9884 11.5301L92.2435 11.53L92.2439 28.2483L87.9889 28.2485L87.9888 25.8041C87.4458 26.5887 86.6961 27.2377 85.7408 27.7506C84.7848 28.2638 83.6837 28.5203 82.4364 28.5203C81.028 28.5203 79.7455 28.1581 78.5888 27.4339C77.4316 26.7096 76.5162 25.6889 75.8424 24.371C75.1682 23.0537 74.8313 21.5395 74.8313 19.8293C74.8312 18.1394 75.168 16.6409 75.8422 15.3329" fill="black"/>
<path d="M100.603 5.91697L100.603 28.2484L96.3784 28.2485L96.3778 5.91709L100.603 5.91697Z" fill="black"/>
<path d="M120.762 11.5293L110.411 36.1546L105.915 36.1547L109.536 27.8254L102.836 11.5298L107.574 11.5297L111.89 23.2082L116.265 11.5294L120.762 11.5293Z" fill="black"/>
<path d="M21.1953 41.142C21.0846 41.142 20.9722 41.1365 20.8579 41.1247C20.5126 41.0885 20.1478 40.9802 19.8241 40.7885C19.4991 40.5978 19.2343 40.3302 19.0349 40.0495C19.0106 40.014 18.985 39.9788 18.9621 39.9429L18.8958 39.8346C18.8543 39.7644 18.8182 39.7008 18.7808 39.6331C18.7065 39.5 18.6362 39.3664 18.5677 39.2326C18.2953 38.6987 18.0648 38.1603 17.8101 37.6679C17.6819 37.423 17.544 37.1906 17.3916 36.9955C17.238 36.8002 17.0712 36.6499 16.8894 36.5622C16.7119 36.4735 16.506 36.432 16.2719 36.432C16.2678 36.432 16.2635 36.432 16.2594 36.432C16.1407 36.4327 16.017 36.4431 15.8914 36.4614C15.7653 36.4814 15.638 36.5064 15.51 36.5394C14.9965 36.6697 14.4881 36.8869 13.989 37.1202C13.4897 37.3562 13.001 37.6222 12.5201 37.9011C12.4585 37.9361 12.4032 37.9704 12.3364 38.0065L12.1399 38.1138C12.0078 38.1842 11.8797 38.2596 11.7442 38.3254C11.4696 38.452 11.2001 38.587 10.9097 38.6897C10.6276 38.8059 10.3272 38.8898 10.0314 38.9814L9.57557 39.0924C9.53746 39.1015 9.4997 39.1116 9.46126 39.1194L9.34473 39.1406L9.11167 39.1825C8.57396 39.2734 8.0224 39.3245 7.46555 39.3245C7.3767 39.3245 7.28785 39.3232 7.199 39.3206C5.90333 39.2836 4.60389 38.9977 3.3897 38.5306C2.78142 38.2983 2.19414 38.0184 1.62874 37.7047C1.34698 37.5463 1.06931 37.3813 0.799855 37.2029C0.66521 37.1137 0.531592 37.023 0.399681 36.9282C0.333725 36.8808 0.26794 36.8333 0.202668 36.7831L0.104418 36.7072L0.0545238 36.6679L0.000359478 36.624L0.606059 35.9792L0.685 36.0357L0.772656 36.0967C0.831606 36.1374 0.892436 36.1779 0.953095 36.218C1.07492 36.2985 1.19983 36.3762 1.32559 36.4528C1.57847 36.6045 1.83717 36.7489 2.09911 36.8864C2.23136 36.9532 2.36242 37.0217 2.49689 37.0838C2.56387 37.1154 2.63017 37.1483 2.69766 37.1784L2.90031 37.2683C3.03495 37.3301 3.17267 37.3831 3.30834 37.4408C3.44538 37.4957 3.58361 37.5466 3.72116 37.5991C4.82889 37.9951 5.98173 38.2396 7.11679 38.2614C7.1677 38.2621 7.21862 38.2624 7.26937 38.2624C7.78419 38.2624 8.29405 38.2236 8.79161 38.139L8.99613 38.1026L9.09848 38.0847C9.13231 38.078 9.16546 38.0688 9.19895 38.0609L9.60031 37.964C9.86122 37.8827 10.1267 37.8111 10.3777 37.7074C10.5035 37.6568 10.6351 37.6166 10.7565 37.5573L11.1277 37.3916C11.2502 37.3345 11.367 37.2674 11.4873 37.206L11.6666 37.1119C11.7257 37.0815 11.7915 37.0427 11.8535 37.0085C12.3572 36.7265 12.8723 36.4557 13.4128 36.2102C13.6826 36.0868 13.9599 35.9714 14.248 35.8679C14.536 35.7647 14.8332 35.6702 15.1501 35.5993C15.4454 35.5336 15.7575 35.4844 16.0977 35.4844C16.1225 35.4844 16.1473 35.4848 16.1724 35.4853C16.3564 35.4892 16.5493 35.5092 16.7455 35.5548C16.9413 35.5999 17.1399 35.6722 17.3237 35.7697C17.5079 35.8668 17.6755 35.9883 17.8177 36.12C17.9607 36.2514 18.0813 36.3915 18.1859 36.5321C18.3954 36.8137 18.543 37.0978 18.6751 37.3745C18.8064 37.6519 18.9195 37.9238 19.0283 38.1922C19.137 38.4603 19.2453 38.7233 19.3573 38.9821C19.4133 39.1113 19.4706 39.2398 19.5309 39.3662C19.5603 39.4287 19.5924 39.4947 19.622 39.5526L19.6655 39.6357L19.7122 39.716C19.84 39.928 20.0013 40.1136 20.2014 40.2523C20.3996 40.3934 20.6386 40.4893 20.8997 40.541C21.0769 40.5773 21.2623 40.592 21.4508 40.5919C21.5401 40.5919 21.63 40.5885 21.7202 40.5827C22.282 40.542 22.8431 40.398 23.3848 40.2145C23.9254 40.026 24.4549 39.8016 24.9644 39.5409C24.7503 39.7203 24.5214 39.886 24.2834 40.0413C24.1644 40.1191 24.0433 40.1948 23.9199 40.2681C23.7962 40.3407 23.6695 40.4096 23.5406 40.4766C23.0253 40.7421 22.4712 40.9695 21.8475 41.0818C21.6386 41.1192 21.4209 41.142 21.1953 41.142" fill="#DAD9D8"/>
<path d="M6.3208 34.7934L6.29773 34.6789L6.33669 34.5368C6.31089 34.5294 6.28372 34.5209 6.2586 34.5142C6.1759 34.4859 6.10123 34.4522 6.03049 34.4144C5.71438 34.2438 5.52711 33.9813 5.41741 33.7431C5.32547 33.5401 5.28703 33.3549 5.27387 33.2596C5.26789 33.2234 5.26652 33.1996 5.26652 33.1929L5.26464 33.1644L5.2566 33.072L5.2566 33.0679L5.14554 33.0586L21.6794 16.5238C23.1298 15.0733 23.9009 13.2003 23.9928 11.3003C24.0344 10.4252 23.9319 9.54496 23.6844 8.69832C23.4008 7.72013 22.9239 6.78567 22.2552 5.95563C22.0765 5.73351 21.8848 5.51908 21.6791 5.31353C20.896 4.53048 19.9905 3.94649 19.0243 3.55967C18.0794 3.18106 17.0762 2.99177 16.0734 2.9918C14.1081 2.99185 12.1434 3.71843 10.6155 5.17101C10.566 5.21799 10.5171 5.26549 10.4688 5.31385C10.4291 5.35349 10.3895 5.3945 10.3503 5.43483C10.3088 5.47789 10.2676 5.52146 10.228 5.56503C8.37827 7.51295 7.24072 9.8899 6.8208 12.3656C6.7171 12.9706 6.65749 13.5818 6.64025 14.1942C6.58221 16.1836 6.97577 18.1856 7.82041 20.0302C8.18882 20.8297 8.63924 21.6015 9.17561 22.3283C9.29932 22.4956 9.42697 22.6617 9.5599 22.8237L8.09768 24.2861C6.26816 22.101 5.15182 19.5216 4.74816 16.855C4.06286 12.3364 5.42452 7.5672 8.83319 4.04334C8.89265 3.98115 8.95296 3.91963 9.01362 3.8588C10.9631 1.90917 13.5186 0.934306 16.0737 0.934234C17.1818 0.934202 18.2898 1.11751 19.3484 1.48416C20.7312 1.96237 22.0296 2.75395 23.1341 3.8584C23.238 3.96228 23.3392 4.06736 23.4364 4.17517C24.2426 5.05289 24.8623 6.0403 25.2962 7.0865C25.3842 7.29615 25.4636 7.50922 25.5349 7.72468C25.7162 8.25777 25.8498 8.80402 25.9358 9.35694C26.0867 10.3081 26.0985 11.2763 25.9723 12.2307C25.6959 14.3326 24.7495 16.3637 23.1345 17.9787L6.3208 34.7934ZM18.161 20.6891L12.0155 26.9717C12.0155 26.9717 17.636 23.2742 18.161 20.6891ZM5.81424 12.7955C4.59766 18.1347 7.02317 20.6895 7.56499 20.6894C7.74081 20.6894 7.71859 20.4207 7.3102 19.8913C5.64198 17.7287 5.81424 12.7955 5.81424 12.7955ZM15.408 1.5357C15.3774 1.5357 15.3479 1.53588 15.3171 1.53605C15.3171 1.53605 22.3416 2.50824 23.7028 6.43623C23.7028 6.43623 23.0756 1.53548 15.408 1.5357" fill="url(#paint0_linear_14_613)"/>
<path d="M21.679 16.5238L5.14517 33.0586L5.13184 33.0572L5.09169 33.0551L5.06503 33.0527C4.58234 33.0049 4.21463 32.8383 3.97045 32.5545C3.72713 32.269 3.66032 31.9258 3.64374 31.7173C3.64117 31.6934 3.6398 31.6736 3.63912 31.6546L20.2239 15.0687C21.4877 13.8048 22.0539 12.1091 21.9249 10.4575C21.8198 9.11297 21.2521 7.79681 20.2236 6.7684C19.7587 6.30348 19.2343 5.93255 18.6761 5.6561C16.5247 4.59201 13.8573 4.92733 12.032 6.66286C11.9956 6.69789 11.9592 6.73292 11.9235 6.76863C11.8943 6.79785 11.8647 6.82758 11.8362 6.85731C10.2072 8.5221 9.21198 10.5744 8.84827 12.7119C8.78267 13.0949 8.73843 13.4805 8.714 13.8673C8.61939 15.3561 8.82464 16.86 9.33061 18.2813C9.43776 18.5829 9.55805 18.8805 9.69168 19.1729C10.0011 19.8461 10.3822 20.4969 10.834 21.1099C10.8955 21.194 10.9589 21.2772 11.0238 21.3594L9.55953 22.8236C9.42659 22.6616 9.29895 22.4955 9.17524 22.3283C8.63887 21.6014 8.18845 20.8296 7.82004 20.0301C6.9754 18.1855 6.58184 16.1835 6.63988 14.1941C6.65712 13.5817 6.71673 12.9705 6.82043 12.3655C7.24035 9.8898 8.3779 7.51286 10.2276 5.56494C10.2673 5.52137 10.3085 5.47779 10.35 5.43473C10.3891 5.39441 10.4287 5.3534 10.4684 5.31376C10.5167 5.2654 10.5656 5.2179 10.6153 5.17091C12.9226 2.97693 16.2277 2.43912 19.0239 3.55958C19.9902 3.94639 20.8956 4.53038 21.6787 5.31344C21.8844 5.51898 22.0761 5.73341 22.2549 5.95553C22.9235 6.78558 23.4004 7.72003 23.6841 8.69823C23.9315 9.54486 24.0341 10.4252 23.9924 11.3002C23.9005 13.2002 23.1295 15.0732 21.679 16.5238" fill="url(#paint1_linear_14_613)"/>
<path d="M11.5632 18.3152C11.3812 17.919 11.2304 17.5128 11.1101 17.0988C10.77 15.9349 10.6702 14.716 10.8109 13.5195C10.8289 13.3654 10.8513 13.212 10.8771 13.0592C11.1728 11.3191 11.983 9.65044 13.3082 8.29595C13.3314 8.27151 13.3552 8.24759 13.3789 8.22384C13.4021 8.20077 13.4252 8.17753 13.4491 8.15515C14.9431 6.73504 17.3035 6.75804 18.7692 8.22368C20.258 9.71239 20.2581 12.125 18.7694 13.6138L12.4924 19.8912C12.1247 19.3925 11.8151 18.8635 11.5632 18.3152V18.3152ZM21.9253 10.4577C21.8202 9.11312 21.2525 7.79696 20.2241 6.76855C19.7591 6.30364 19.2347 5.9327 18.6765 5.65625C16.5251 4.59217 13.8577 4.92748 12.0324 6.66302C11.996 6.69804 11.9596 6.73307 11.9239 6.76878C11.8947 6.798 11.8652 6.82773 11.8366 6.85746C10.2076 8.52225 9.21241 10.5746 8.8487 12.7121C8.7831 13.095 8.73885 13.4806 8.71443 13.8675C8.61981 15.3562 8.82507 16.8602 9.33104 18.2814C9.43818 18.583 9.55848 18.8807 9.69211 19.173C10.0016 19.8462 10.3826 20.497 10.8344 21.1101C10.8959 21.1941 10.9593 21.2774 11.0242 21.3595L2.08736 30.2969L2.08856 30.2981L2.23277 30.3207C2.23209 30.3241 2.22953 30.34 2.23021 30.3642C2.22628 30.4423 2.23346 30.6084 2.32471 30.7856C2.34915 30.83 2.377 30.8761 2.41408 30.9212C2.54309 31.0793 2.73087 31.1984 2.97811 31.2725C3.11447 31.3147 3.26859 31.3445 3.4398 31.3597C3.45893 31.3617 3.48285 31.3631 3.50404 31.3643L3.63561 31.3742L3.6515 31.3755L3.63886 31.5244L3.63954 31.5264C3.63818 31.5329 3.63818 31.5488 3.63767 31.576C3.63818 31.5898 3.63886 31.6064 3.63886 31.6248L3.63955 31.6547L20.2243 15.0689C21.4882 13.8049 22.0544 12.1092 21.9253 10.4577" fill="url(#paint2_linear_14_613)"/>
<path d="M30.443 25.287C30.4245 25.3056 30.4052 25.3247 30.3861 25.3425C28.4313 27.279 26.0793 28.5728 23.5946 29.2256C22.4796 29.5194 21.338 29.6834 20.1925 29.7178C17.7216 29.7932 15.2362 29.2669 12.9736 28.1406L14.5231 26.591C15.2876 26.9229 16.0773 27.177 16.8802 27.3555C17.6898 27.5352 18.5139 27.6371 19.3387 27.6616C20.4139 27.6932 21.4934 27.5941 22.5484 27.362C23.9662 27.051 25.3418 26.5021 26.613 25.7149C27.4569 25.1926 28.2552 24.5648 28.988 23.8321L31.046 21.7738C31.5838 22.8974 31.4006 24.2804 30.4985 25.2301C30.4807 25.2494 30.4616 25.2685 30.443 25.287" fill="url(#paint3_linear_14_613)"/>
<path d="M29.5908 20.3188L27.5326 22.3771C26.858 23.0517 26.118 23.6211 25.3322 24.0841C24.1471 24.7839 22.8587 25.2429 21.5387 25.4613C20.1431 25.6913 18.7119 25.6532 17.3277 25.3469C16.917 25.2564 16.511 25.1414 16.1108 25.003L17.7754 23.3384C20.6722 23.9811 23.8243 23.1755 26.0775 20.9221C26.9333 20.0664 28.1656 19.8182 29.2397 20.1767C29.3586 20.2163 29.4763 20.264 29.5908 20.3188" fill="url(#paint4_linear_14_613)"/>
<path d="M31.0458 21.7738L28.9878 23.8321C28.255 24.5648 27.4567 25.1925 26.6128 25.7149C25.3416 26.5021 23.966 27.051 22.5482 27.362C21.4932 27.5941 20.4137 27.6932 19.3385 27.6616C18.5137 27.637 17.6896 27.5352 16.88 27.3555C16.0771 27.177 15.2874 26.9229 14.5229 26.5909L16.1109 25.0029C16.5111 25.1413 16.917 25.2562 17.3278 25.3468C18.712 25.6531 20.1432 25.6912 21.5388 25.4611C22.8587 25.2427 24.1472 24.7838 25.3323 24.084C26.1181 23.621 26.8581 23.0516 27.5327 22.377L29.5909 20.3187C29.8991 20.4655 30.1874 20.6666 30.4426 20.9219C30.6081 21.0872 30.7509 21.2672 30.8712 21.4561C30.9361 21.5595 30.9944 21.6653 31.0458 21.7738" fill="url(#paint5_linear_14_613)"/>
<path d="M3.32892 35.1332L3.32722 35.1349L3.31355 35.1452L3.28792 35.14C3.23666 35.1264 3.1854 35.1144 3.13755 35.099C2.81803 35.0051 2.56173 34.8786 2.35327 34.7317C1.99786 34.4839 1.78427 34.1815 1.65611 33.8962L1.65441 33.8945C1.63732 33.8569 1.62194 33.821 1.60827 33.7851C1.60314 33.768 1.59631 33.7526 1.59118 33.7356C1.55188 33.6313 1.52625 33.5305 1.50574 33.4383L1.50574 33.4366L2.12249 30.9351C2.14983 30.988 2.18401 31.0393 2.22502 31.0888C2.2609 31.1333 2.29678 31.1726 2.33779 31.2102C2.48303 31.3468 2.66415 31.4528 2.88628 31.5262C3.03664 31.5758 3.20409 31.6134 3.38863 31.6339C3.39034 31.6988 3.39547 31.7859 3.41256 31.8833L3.41597 31.9107C3.41939 31.9278 3.42281 31.9466 3.42623 31.9654C3.43648 32.0081 3.44673 32.0525 3.4587 32.0986C3.51509 32.3002 3.6142 32.5258 3.78849 32.7308C3.80899 32.753 3.8312 32.7752 3.85341 32.8009L3.89955 32.847C4.08922 33.0281 4.32331 33.1597 4.60353 33.2434C4.68554 33.2673 4.77269 33.2878 4.86495 33.3032C4.88375 33.3066 4.90425 33.31 4.92305 33.3134C4.96064 33.3186 4.99823 33.3237 5.03582 33.3288C5.03924 33.3527 5.04607 33.3784 5.0512 33.4074C5.07683 33.5185 5.11785 33.6688 5.18791 33.8277C5.20329 33.8636 5.22208 33.8995 5.24088 33.9354C5.36562 34.178 5.56041 34.4326 5.85772 34.6171L3.32892 35.1332ZM6.30197 34.5026C6.21995 34.4753 6.14477 34.4411 6.07301 34.4035L6.04908 34.3899C5.74665 34.219 5.56723 33.9627 5.46129 33.732C5.36902 33.5287 5.32971 33.3442 5.31775 33.2485C5.31091 33.2126 5.3092 33.1887 5.3092 33.1819L5.30749 33.1528L5.30066 33.0605L5.30066 33.0571L5.18959 33.0486L5.17592 33.0469C5.16054 33.0469 5.14858 33.0452 5.13491 33.0452L5.10928 33.0418C4.62573 32.9939 4.25837 32.8282 4.01402 32.5446C3.77138 32.2575 3.70474 31.9141 3.68764 31.7073C3.68423 31.6834 3.68423 31.6629 3.68252 31.6441L3.68252 31.6134C3.68251 31.5946 3.68081 31.5792 3.68081 31.5655C3.6808 31.5382 3.6808 31.5228 3.68251 31.516L3.68251 31.5125L3.69447 31.3639L3.67909 31.3639L3.54753 31.3536C3.52531 31.3519 3.50139 31.3502 3.4826 31.3485C3.31173 31.3331 3.15795 31.3041 3.02126 31.2614C2.7735 31.1879 2.58554 31.0683 2.45739 30.9094C2.4198 30.865 2.39246 30.8189 2.36854 30.7744L2.36683 30.771C2.27626 30.595 2.26942 30.431 2.27284 30.3541C2.27284 30.3285 2.27455 30.3131 2.27626 30.3097L2.13102 30.2875L2.13102 30.2858L2.00971 30.3148L1.89353 30.771L0.981208 34.3456L0.958999 34.4344L0.842823 34.9026C0.784736 35.1418 0.851381 35.3879 1.02054 35.5656L1.03763 35.5809C1.10427 35.6476 1.18287 35.6988 1.2683 35.733C1.39304 35.7843 1.53656 35.7996 1.67667 35.7689L2.60276 35.5809L2.6694 35.5672L2.75483 35.5501L6.0491 34.8888L6.32351 34.8327L6.34127 34.6684L6.38057 34.5265C6.35494 34.518 6.3276 34.5095 6.30197 34.5026" fill="#EE1D6A"/>
<path d="M23.703 6.43628C22.3417 2.50829 15.3172 1.5361 15.3172 1.5361C15.348 1.53593 15.3776 1.53576 15.4081 1.53576C23.0757 1.53554 23.703 6.43628 23.703 6.43628" fill="url(#paint6_linear_14_613)"/>
<path d="M7.56486 20.6894C7.02305 20.6894 4.59754 18.1347 5.81412 12.7955C5.81412 12.7955 5.64186 17.7287 7.31008 19.8913C7.71846 20.4206 7.74068 20.6894 7.56486 20.6894Z" fill="url(#paint7_linear_14_613)"/>
<path d="M12.0151 26.9717L18.1606 20.6891C17.6357 23.2742 12.0151 26.9717 12.0151 26.9717Z" fill="url(#paint8_linear_14_613)"/>
<defs>
<linearGradient id="paint0_linear_14_613" x1="4.57617" y1="17.8639" x2="26.0591" y2="17.8633" gradientUnits="userSpaceOnUse">
<stop stop-color="#ED1871"/>
<stop offset="2.4e-07" stop-color="#ED1871"/>
<stop offset="1" stop-color="#F89B0F"/>
</linearGradient>
<linearGradient id="paint1_linear_14_613" x1="3.63873" y1="18.0253" x2="24.0016" y2="18.0247" gradientUnits="userSpaceOnUse">
<stop stop-color="#ED1871"/>
<stop offset="2.4e-07" stop-color="#ED1871"/>
<stop offset="0.9" stop-color="#F89B0F"/>
<stop offset="1" stop-color="#F89B0F"/>
</linearGradient>
<linearGradient id="paint2_linear_14_613" x1="2.08702" y1="18.3522" x2="21.9435" y2="18.3517" gradientUnits="userSpaceOnUse">
<stop stop-color="#ED1871"/>
<stop offset="2.4e-07" stop-color="#ED1871"/>
<stop offset="0.8" stop-color="#F89B0F"/>
<stop offset="1" stop-color="#F89B0F"/>
</linearGradient>
<linearGradient id="paint3_linear_14_613" x1="11.4486" y1="26.1191" x2="26.2276" y2="25.7298" gradientUnits="userSpaceOnUse">
<stop stop-color="#6BCFF1"/>
<stop offset="1" stop-color="#425DB3"/>
</linearGradient>
<linearGradient id="paint4_linear_14_613" x1="12.4931" y1="25.1176" x2="30.4028" y2="21.6459" gradientUnits="userSpaceOnUse">
<stop stop-color="#6BCFF1"/>
<stop offset="1" stop-color="#425DB3"/>
</linearGradient>
<linearGradient id="paint5_linear_14_613" x1="12.1338" y1="22.9109" x2="26.6406" y2="24.1939" gradientUnits="userSpaceOnUse">
<stop stop-color="#6BCFF1"/>
<stop offset="1" stop-color="#425DB3"/>
</linearGradient>
<linearGradient id="paint6_linear_14_613" x1="4.57641" y1="17.864" x2="26.0592" y2="17.8634" gradientUnits="userSpaceOnUse">
<stop stop-color="#F24AA1"/>
<stop offset="2.4e-07" stop-color="#F24AA1"/>
<stop offset="1" stop-color="#F9BC46"/>
</linearGradient>
<linearGradient id="paint7_linear_14_613" x1="4.57617" y1="17.8639" x2="26.0589" y2="17.8633" gradientUnits="userSpaceOnUse">
<stop stop-color="#EF2D8B"/>
<stop offset="2.4e-07" stop-color="#EF2D8B"/>
<stop offset="1" stop-color="#F8AC28"/>
</linearGradient>
<linearGradient id="paint8_linear_14_613" x1="4.5759" y1="17.8639" x2="26.0587" y2="17.8633" gradientUnits="userSpaceOnUse">
<stop stop-color="#EF2D8B"/>
<stop offset="2.4e-07" stop-color="#EF2D8B"/>
<stop offset="1" stop-color="#F8AC28"/>
</linearGradient>
</defs>
</svg>
